# xmcd
#
# Track frame offsets:
#	182
#	13117
#	28572
#	39165
#	43020
#	51872
#	62465
#	72742
#	85787
#	95675
#	108870
#	119565
#	131837
#	145920
#	155375
#	165717
#	171572
#	177980
#	189982
#	197880
#	206837
#	217360
#	231495
#
# Disc length: 3173 seconds
#
# Revision: 1
# Processed by: cddbd v1.4PL0 Copyright (c) Steve Scherf et al.
# Submitted via: audiograbber 1.81.03
#
DISCID=5e0c6317
DTITLE=APARIMA LEGENDAIRES DES MERS DU SUD - SOUTH PACIFIC APARIMA
DYEAR=1992
DGENRE=Native Songs
TTITLE0=E tau here iti e
TTITLE1=E po manea teie
TTITLE2=To reo aroha
TTITLE3=Hei parohiti
TTITLE4=E hoa tera era tamaiti
TTITLE5=Make aueue
TTITLE6=Kaofa nui
TTITLE7=Tangata
TTITLE8=Na'u haka
TTITLE9=Rarahu ia loti
TTITLE10=Vahine nui
TTITLE11=Fare auri
TTITLE12=Afea e nafea
TTITLE13=Tauranga
TTITLE14=Ua tihe te ono io matou
TTITLE15=Atia e to matairea
TTITLE16=Papeete
TTITLE17=Tere tere
TTITLE18=Ha chi chi
TTITLE19=Haere ana vau i huahine
TTITLE20=Tau tamaiti
TTITLE21=Honeymoon aue
TTITLE22=Tama toni
EXTD=
EXTT0=
EXTT1=
EXTT2=
EXTT3=
EXTT4=
EXTT5=
EXTT6=
EXTT7=
EXTT8=
EXTT9=
EXTT10=
EXTT11=
EXTT12=
EXTT13=
EXTT14=
EXTT15=
EXTT16=
EXTT17=
EXTT18=
EXTT19=
EXTT20=
EXTT21=
EXTT22=
PLAYORDER=
